Coordinates
version=1
nRows=7
nColumns=40
inDegrees=yes

Units are S.I. units (second, meters, Newtons, ...)
Angles are in degrees.

endheader
time	pelvis_tilt	pelvis_list	pelvis_rotation	pelvis_tx	pelvis_ty	pelvis_tz	hip_flexion_r	hip_adduction_r	hip_rotation_r	knee_angle_r	knee_angle_r_beta	ankle_angle_r	subtalar_angle_r	mtp_angle_r	hip_flexion_l	hip_adduction_l	hip_rotation_l	knee_angle_l	knee_angle_l_beta	ankle_angle_l	subtalar_angle_l	mtp_angle_l	lumbar_extension	lumbar_bending	lumbar_rotation	arm_flex_r	arm_add_r	arm_rot_r	elbow_flex_r	pro_sup_r	wrist_flex_r	wrist_dev_r	arm_flex_l	arm_add_l	arm_rot_l	elbow_flex_l	pro_sup_l	wrist_flex_l	wrist_dev_l
      2.12000000	     -2.27860653	      1.93260028	     -0.77282363	      0.55179668	      0.88632494	     -1.46676336	     16.71734606	     -6.61120201	     -9.63345047	    -67.38285228	     -1.17605263	     -6.47160577	    -18.64759345	     22.80998974	     18.29447791	     -2.33434278	      9.61271635	    -29.99564541	     -0.52352277	      9.41271108	     10.19870900	      4.62423989	     -1.88819626	     -4.66739737	     -0.39085436	     -2.94123294	     -9.39037990	     -9.91144652	     27.61144137	     89.95437384	      0.00000000	      0.00000000	     -1.60636368	     10.33062040	     18.15826818	     27.44787415	     89.95437384	      0.00000000	      0.00000000
      2.13000000	     -2.13467526	      1.76667771	     -0.36295055	      0.56096667	      0.88731722	     -1.46790682	     17.74903597	     -6.41518880	     -9.95173884	    -67.43702215	     -1.17699807	     -4.59881092	    -18.48401129	     22.63279571	     17.27621650	     -2.27622319	      9.53351098	    -29.63396302	     -0.51721023	      9.68704827	      9.70309007	      4.43545469	     -2.10423621	     -4.43787245	     -1.11481228	     -3.11190766	     -9.21667969	     -9.79171330	     26.73868587	     89.95437384	      0.00000000	      0.00000000	     -1.02100705	     10.62254078	     18.32193648	     28.37171440	     89.95437384	      0.00000000	      0.00000000
      2.14000000	     -2.08315424	      1.56251080	     -0.00942372	      0.57003689	      0.88818103	     -1.46888373	     18.82979950	     -6.10461780	    -10.18626192	    -67.15332553	     -1.17204663	     -3.06646784	    -18.41552109	     22.39189109	     16.34600062	     -2.16319626	      9.33930584	    -29.24785588	     -0.51047138	     10.00469340	      9.19934441	      4.25596118	     -2.19200931	     -4.17304667	     -1.71942625	     -3.32731887	     -9.04075323	     -9.73727285	     25.86341803	     89.95437384	      0.00000000	      0.00000000	     -0.36181666	     10.92351746	     18.39414103	     29.17531426	     89.95437384	      0.00000000	      0.00000000
      2.15000000	     -2.10261673	      1.38886529	      0.32074470	      0.57888794	      0.88881844	     -1.46980223	     20.03135190	     -5.88913217	    -10.50370978	    -66.70355925	     -1.16419673	     -2.14758342	    -18.40362001	     22.08913348	     15.57105044	     -2.02717285	      9.40137743	    -28.95440328	     -0.50534967	     10.23780867	      8.91505475	      4.14109156	     -2.20886250	     -3.93373369	     -2.24311181	     -3.68403762	     -8.90637015	     -9.74317662	     25.27074029	     89.95437384	      0.00000000	      0.00000000	      0.37526354	     11.21509760	     18.44207943	     29.93069662	     89.95437384	      0.00000000	      0.00000000
      2.16000000	     -1.65606410	      1.05982525	      0.73256041	      0.58825797	      0.89024690	     -1.47051308	     20.39945009	     -5.41518378	    -10.90665930	    -65.67406048	     -1.14622859	     -0.43739781	    -18.11166772	     22.35125817	     14.16127386	     -1.64696674	      9.42946440	    -28.50594549	     -0.49752261	     10.43374738	      7.62112406	      3.64906079	     -2.74206603	     -3.54965547	     -2.98754755	     -3.70384111	     -8.60657208	    -10.26190317	     24.29159984	     89.95437384	      0.00000000	      0.00000000	      0.90894508	     11.47738962	     18.86613384	     31.06203984	     89.95437384	      0.00000000	      0.00000000
      2.17000000	     -1.78903577	      0.99293831	      0.98714422	      0.59720046	      0.89049442	     -1.47134692	     21.63694959	     -5.29944958	    -11.12050464	    -64.76845456	     -1.13042278	      0.29062253	    -18.02833537	     22.00717036	     13.51155112	     -1.59724018	      9.55144873	    -28.24437530	     -0.49295734	     10.61986988	      7.37498755	      3.53255043	     -2.58899056	     -3.42019310	     -3.37507671	     -4.18506196	     -8.48221092	    -10.31679442	     23.79290708	     89.95437384	      0.00000000	      0.00000000	      1.60827780	     11.74498158	     18.89891575	     31.85526141	     89.95437384	      0.00000000	      0.00000000
      2.18000000	     -1.47825095	      0.66784788	      1.49848848	      0.60624989	      0.89135827	     -1.47215266	     22.10741868	     -4.87089011	    -11.60614642	    -63.37585898	     -1.10611741	      1.50917684	    -17.85562369	     21.93397598	     12.38041750	     -1.25307278	      9.43012089	    -27.95039802	     -0.48782647	     10.90786879	      6.47397550	      3.13456323	     -2.99944424	     -3.02355998	     -4.16526598	     -4.20817665	     -8.20213303	    -11.03950481	     22.85960826	     89.95437384	      0.00000000	      0.00000000	      2.08251131	     11.98697458	     19.27136147	     33.16301806	     89.95437384	      0.00000000	      0.00000000
